<?xml version="1.0" encoding="UTF-8"?>
<!DOCTYPE svg PUBLIC "-//W3C//DTD SVG 1.0//EN" "http://www.w3.org/TR/2001/REC-SVG-20010904/DTD/svg10.dtd">
<!-- Creator: CorelDRAW -->
<svg xmlns="http://www.w3.org/2000/svg" xml:space="preserve" width="4.4922mm" height="4.4869mm" version="1.0" style="shape-rendering:geometricPrecision; text-rendering:geometricPrecision; image-rendering:optimizeQuality; fill-rule:evenodd; clip-rule:evenodd"
viewBox="0 0 79.62 79.52"
 xmlns:xlink="http://www.w3.org/1999/xlink"
 xmlns:xodm="http://www.corel.com/coreldraw/odm/2003">
 <defs>
  <style type="text/css">
   <![CDATA[
    .fil0 {fill:white;fill-rule:nonzero}
   ]]>
  </style>
 </defs>
 <g id="圖層_x0020_1">
  <metadata id="CorelCorpID_0Corel-Layer"/>
  <path class="fil0" d="M61.58 17.94c-1.76,-1.76 -1.76,-4.61 0,-6.37 1.76,-1.76 4.61,-1.76 6.37,0l0.25 0.27c7.6,7.74 11.41,17.81 11.41,27.87 0,10.18 -3.89,20.36 -11.66,28.13 -7.77,7.79 -17.97,11.68 -28.15,11.68 -10.18,0 -20.38,-3.89 -28.15,-11.66 -7.77,-7.77 -11.66,-17.96 -11.66,-28.15 0,-10.17 3.89,-20.36 11.66,-28.13 1.76,-1.78 4.62,-1.78 6.37,-0.02 1.76,1.76 1.76,4.61 0,6.37 -6.01,6 -9.02,13.89 -9.02,21.78 0,7.88 3.01,15.77 9.02,21.77 6.01,6.01 13.9,9.02 21.78,9.02 7.88,0 15.77,-3.01 21.78,-9.02 6.01,-6 9.02,-13.89 9.02,-21.78 0,-7.79 -2.93,-15.58 -8.79,-21.57l-0.23 -0.21zm-26.28 -13.43c0,-2.49 2.02,-4.51 4.51,-4.51 2.49,0 4.51,2.02 4.51,4.51l0 35.21c0,2.49 -2.02,4.51 -4.51,4.51 -2.49,0 -4.51,-2.02 -4.51,-4.51l0 -35.21z"/>
 </g>
</svg>
