<?xml version="1.0" encoding="UTF-8"?>
<!DOCTYPE svg PUBLIC "-//W3C//DTD SVG 1.0//EN" "http://www.w3.org/TR/2001/REC-SVG-20010904/DTD/svg10.dtd">
<!-- Creator: CorelDRAW -->
<svg xmlns="http://www.w3.org/2000/svg" xml:space="preserve" width="12.124mm" height="12.773mm" version="1.0" style="shape-rendering:geometricPrecision; text-rendering:geometricPrecision; image-rendering:optimizeQuality; fill-rule:evenodd; clip-rule:evenodd"
viewBox="0 0 112.05 118.05"
 xmlns:xlink="http://www.w3.org/1999/xlink"
 xmlns:xodm="http://www.corel.com/coreldraw/odm/2003">
 <defs>
  <style type="text/css">
   <![CDATA[
    .fil0 {fill:white}
   ]]>
  </style>
 </defs>
 <g id="圖層_x0020_1">
  <metadata id="CorelCorpID_0Corel-Layer"/>
  <g>
   <path class="fil0" d="M25.39 6l1.83 0 0 -1.62c0,-2.41 1.97,-4.37 4.38,-4.37 2.41,0 4.37,1.97 4.37,4.37l0 1.62 40.11 0 0 -1.62c0,-2.41 1.97,-4.37 4.38,-4.37 2.41,0 4.37,1.97 4.37,4.37l0 1.62 1.83 0c13.97,0 25.39,11.43 25.39,25.39l0 61.27c0,13.97 -11.43,25.39 -25.39,25.39l-61.27 0c-13.97,0 -25.39,-11.43 -25.39,-25.39l0 -61.27c0,-13.97 11.43,-25.39 25.39,-25.39zm8.36 78.93l15.42 0c0.84,0 1.47,0.22 1.91,0.66 0.44,0.44 0.66,1.05 0.66,1.85l0 1.43c0,0.84 -0.23,1.47 -0.69,1.91 -0.46,0.44 -1.1,0.66 -1.94,0.66l-22.8 0c-0.84,0 -1.5,-0.21 -2,-0.63 -0.5,-0.42 -0.75,-1 -0.75,-1.76l0 -1.13c0,-0.6 0.12,-1.16 0.36,-1.7 0.24,-0.54 0.64,-1.12 1.19,-1.76l15.69 -17.01c1.39,-1.55 2.35,-2.85 2.87,-3.91 0.52,-1.05 0.79,-2.18 0.83,-3.37 -0.04,-1.39 -0.36,-2.64 -0.95,-3.73 -0.6,-1.09 -1.43,-1.94 -2.51,-2.54 -1.07,-0.6 -2.35,-0.91 -3.82,-0.96 -1.15,0.04 -2.23,0.27 -3.22,0.69 -0.99,0.42 -1.84,1 -2.54,1.76 -0.7,0.76 -1.18,1.61 -1.46,2.57 -0.4,0.76 -0.84,1.31 -1.31,1.67 -0.48,0.36 -1.07,0.54 -1.79,0.54l-1.43 0c-0.88,0 -1.53,-0.26 -1.97,-0.78 -0.44,-0.52 -0.52,-1.19 -0.24,-2.03 0.44,-1.99 1.34,-3.81 2.72,-5.46 1.37,-1.65 3.04,-2.97 5.01,-3.97 1.97,-0.99 4.05,-1.47 6.24,-1.43 2.55,0 4.88,0.63 7.01,1.88 2.13,1.25 3.82,2.93 5.07,5.04 1.25,2.11 1.88,4.34 1.88,6.68 0,1.99 -0.42,3.9 -1.25,5.73 -0.84,1.83 -2.17,3.82 -4,5.97l-12.2 13.13 0 0zm46.73 -18.08c2.49,0.83 4.47,2.05 5.93,3.67 1.77,1.97 2.66,4.53 2.66,7.67 0,2.43 -0.69,4.7 -2.06,6.83 -1.37,2.13 -3.21,3.83 -5.52,5.1 -2.31,1.27 -4.73,1.91 -7.28,1.91 -2.31,0 -4.49,-0.49 -6.53,-1.46 -2.05,-0.97 -3.79,-2.3 -5.22,-3.97 -1.43,-1.67 -2.37,-3.52 -2.81,-5.55 -0.28,-0.84 -0.2,-1.5 0.24,-2 0.44,-0.5 1.09,-0.75 1.97,-0.75l1.73 0c0.72,0 1.25,0.16 1.61,0.48 0.36,0.32 0.76,0.88 1.19,1.67 0.28,1 0.79,1.88 1.52,2.66 0.74,0.78 1.64,1.37 2.72,1.79 1.07,0.42 2.27,0.63 3.58,0.63 1.51,0 2.89,-0.32 4.15,-0.96 1.25,-0.64 2.23,-1.51 2.92,-2.62 0.7,-1.11 1.04,-2.37 1.04,-3.76 0,-2.35 -0.79,-4.21 -2.36,-5.58 -1.57,-1.37 -3.89,-2.14 -6.95,-2.3 -0.84,-0.08 -1.46,-0.32 -1.88,-0.72 -0.42,-0.4 -0.63,-0.97 -0.63,-1.73l0 -1.37c0,-0.76 0.2,-1.32 0.6,-1.7 0.4,-0.38 1.01,-0.63 1.85,-0.75 2.11,-0.16 3.78,-0.73 5.01,-1.7 1.23,-0.98 1.85,-2.2 1.85,-3.67 0,-1.11 -0.25,-2.1 -0.75,-2.95 -0.5,-0.86 -1.2,-1.52 -2.12,-2 -0.91,-0.48 -1.97,-0.72 -3.16,-0.72 -1.19,0 -2.22,0.23 -3.07,0.69 -0.86,0.46 -1.5,1.06 -1.94,1.82l-0.72 0.6c-0.44,0.36 -0.85,0.64 -1.22,0.84 -0.38,0.2 -0.83,0.3 -1.34,0.3l-1.55 0c-0.99,0 -1.72,-0.29 -2.18,-0.87 -0.46,-0.58 -0.45,-1.28 0.03,-2.12 0.6,-1.47 1.48,-2.79 2.66,-3.97 1.17,-1.17 2.56,-2.1 4.15,-2.77 1.59,-0.68 3.32,-1.01 5.19,-1.01 2.23,0 4.33,0.52 6.3,1.55 1.97,1.03 3.54,2.46 4.71,4.27 1.17,1.81 1.76,3.77 1.76,5.88 0,2.11 -0.69,3.97 -2.06,5.58 -1.04,1.23 -2.38,2.25 -4.02,3.07l0 0zm-44.51 -52.56l0 2.24c0,2.41 -1.97,4.37 -4.37,4.37 -2.41,0 -4.38,-1.97 -4.38,-4.37l0 -2.24 -0.93 0c-9.77,0 -17.79,7.89 -18,17.61l95.46 0c-0.21,-9.72 -8.23,-17.61 -18,-17.61l-0.93 0 0 2.24c0,2.41 -1.97,4.37 -4.37,4.37 -2.41,0 -4.38,-1.97 -4.38,-4.37l0 -2.24 -40.11 0z"/>
  </g>
 </g>
</svg>
