<?xml version="1.0" encoding="UTF-8"?>
<!DOCTYPE svg PUBLIC "-//W3C//DTD SVG 1.0//EN" "http://www.w3.org/TR/2001/REC-SVG-20010904/DTD/svg10.dtd">
<!-- Creator: CorelDRAW -->
<svg xmlns="http://www.w3.org/2000/svg" xml:space="preserve" width="74.1752mm" height="74.1752mm" version="1.0" style="shape-rendering:geometricPrecision; text-rendering:geometricPrecision; image-rendering:optimizeQuality; fill-rule:evenodd; clip-rule:evenodd"
viewBox="0 0 745.43 745.43"
 xmlns:xlink="http://www.w3.org/1999/xlink"
 xmlns:xodm="http://www.corel.com/coreldraw/odm/2003">
 <defs>
  <style type="text/css">
   <![CDATA[
    .fil0 {fill:#330000}
    .fil1 {fill:#FF9A00;fill-rule:nonzero}
   ]]>
  </style>
 </defs>
 <g id="圖層_x0020_1">
  <metadata id="CorelCorpID_0Corel-Layer"/>
  <rect class="fil0" width="745.43" height="745.43" rx="159.83" ry="159.83"/>
  <path class="fil1" d="M451.1 523.73c2.16,6.49 1.62,12.28 -1.62,17.37 -3.24,5.1 -8.11,7.49 -14.59,7.18l-12.51 0c-6.79,0.31 -12.2,-1.62 -16.21,-5.79 -4.01,-4.17 -7.41,-10.11 -10.19,-17.83l-100.06 -269.6 21.77 0 -100.06 269.6c-2.78,7.72 -6.1,13.67 -9.96,17.83 -3.86,4.17 -9.34,6.1 -16.45,5.79l-12.04 0c-6.79,0.31 -11.73,-2.08 -14.82,-7.18 -3.09,-5.1 -3.55,-10.89 -1.39,-17.37l112.1 -301.1c4.32,-12.04 13.12,-17.91 26.4,-17.6l11.12 0c12.97,-0.31 21.62,5.56 25.94,17.6l112.56 301.1zm-65.32 -120.44l-0.46 50.03 -157.03 0 0 -50.49 157.5 0.46z"/>
  <path id="_1" class="fil1" d="M564.52 236.53c0,6.18 -1.7,10.96 -5.1,14.36 -3.4,3.4 -8.18,4.94 -14.36,4.63l-10.19 0.46c-6.49,0 -11.43,-1.7 -14.82,-5.1 -3.4,-3.4 -5.1,-8.18 -5.1,-14.36l0 -19.92c0,-6.49 1.7,-11.43 5.1,-14.82 3.4,-3.4 8.18,-4.94 14.36,-4.63l10.19 -0.46c6.49,0 11.43,1.7 14.82,5.1 3.4,3.4 5.1,8.34 5.1,14.82l0 19.92zm0 292.3c0,6.49 -1.7,11.43 -5.1,14.82 -3.4,3.4 -8.18,4.94 -14.36,4.63l-10.19 0.46c-6.49,0 -11.43,-1.7 -14.82,-5.1 -3.4,-3.4 -5.1,-8.34 -5.1,-14.82l0 -206.6c0,-6.49 1.7,-11.43 5.1,-14.82 3.4,-3.4 8.18,-4.94 14.36,-4.63l10.19 -0.46c6.49,0 11.43,1.7 14.82,5.1 3.4,3.4 5.1,8.34 5.1,14.82l0 206.6z"/>
 </g>
</svg>
