<?xml version="1.0" encoding="UTF-8"?>
<!DOCTYPE svg PUBLIC "-//W3C//DTD SVG 1.0//EN" "http://www.w3.org/TR/2001/REC-SVG-20010904/DTD/svg10.dtd">
<!-- Creator: CorelDRAW -->
<svg xmlns="http://www.w3.org/2000/svg" xml:space="preserve" width="74.1752mm" height="74.1752mm" version="1.0" style="shape-rendering:geometricPrecision; text-rendering:geometricPrecision; image-rendering:optimizeQuality; fill-rule:evenodd; clip-rule:evenodd"
viewBox="0 0 1016.4 1016.4"
 xmlns:xlink="http://www.w3.org/1999/xlink"
 xmlns:xodm="http://www.corel.com/coreldraw/odm/2003">
 <defs>
  <style type="text/css">
   <![CDATA[
    .fil0 {fill:#001E36}
    .fil1 {fill:#31A8FF;fill-rule:nonzero}
   ]]>
  </style>
 </defs>
 <g id="圖層_x0020_1">
  <metadata id="CorelCorpID_0Corel-Layer"/>
  <path class="fil0" d="M217.92 0l580.55 0c119.86,0 217.92,98.07 217.92,217.92l0 580.55c0,119.86 -98.07,217.92 -217.92,217.92l-580.55 0c-119.86,0 -217.92,-98.07 -217.92,-217.92l0 -580.55c0,-119.86 98.07,-217.92 217.92,-217.92z"/>
  <path class="fil1" d="M291.37 710.32c-0.42,8.84 -2.95,15.68 -7.58,20.53 -4.63,4.84 -11.58,7.05 -20.84,6.63l-14.53 0.63c-9.26,0 -16.32,-2.42 -21.16,-7.26 -4.84,-4.84 -7.05,-11.68 -6.63,-20.53l0 -396.02c0,-14.74 3.9,-26 11.69,-33.79 7.79,-7.79 18.84,-11.47 33.16,-11.05l25.26 -0.63 0.63 441.5zm-15.79 -229.91l97.9 0c16,0 29.9,-3.16 41.69,-9.47 11.79,-6.32 20.84,-14.95 27.16,-25.9 6.32,-10.95 9.47,-23.16 9.47,-36.63 0,-13.05 -3.16,-24.95 -9.47,-35.69 -6.32,-10.74 -15.37,-19.16 -27.16,-25.26 -11.79,-6.11 -25.47,-9.16 -41.05,-9.16l-96.64 -0.63 0.63 -68.21 95.37 0c27.79,0 53.16,6.63 76.11,19.9 22.95,13.26 40.84,30.63 53.69,52.11 12.84,21.47 19.26,43.79 19.26,66.95 0,23.16 -6.42,45.58 -19.26,67.27 -12.84,21.69 -30.74,39.37 -53.69,53.06 -22.95,13.68 -48.11,20.53 -75.48,20.53l-99.16 0 0.63 -68.85zm265.01 198.96c-5.89,-6.74 -7.68,-13.37 -5.37,-19.9 2.32,-6.53 7.47,-11.05 15.47,-13.58l14.53 -5.05c7.16,-2.1 13.05,-2.21 17.68,-0.32 4.63,1.9 10.53,6 17.69,12.32 8.84,12.21 20.95,21.16 36.32,26.84 15.37,5.68 30.95,6.84 46.74,3.47 15.79,-3.37 29.16,-10.95 40.11,-22.74 7.16,-7.58 10.95,-16.11 11.37,-25.58 0.42,-9.47 -2.95,-17.79 -10.11,-24.95 -7.16,-7.16 -17.9,-11.79 -32.21,-13.9l-59.37 -8.21c-26.95,-3.79 -48,-14.53 -63.16,-32.21 -15.16,-17.68 -22.63,-37.9 -22.42,-60.63 0.21,-22.74 7.68,-42.53 22.42,-59.37 17.68,-20.21 38.53,-32.53 62.53,-36.95 24,-4.42 47.69,-2.63 71.06,5.37 23.37,8 43.06,19.79 59.06,35.37 6.74,6.32 9.79,12.63 9.16,18.95 -0.63,6.32 -4.53,11.79 -11.68,16.42l-12.63 6.95c-6.32,3.79 -12.11,5.26 -17.37,4.42 -5.26,-0.84 -11.69,-3.79 -19.26,-8.84 -8.84,-7.58 -18.63,-13.26 -29.37,-17.05 -10.74,-3.79 -21.68,-4.53 -32.84,-2.21 -11.16,2.32 -21.16,8.32 -30,18 -5.89,6.74 -9.05,14.32 -9.47,22.74 -0.42,8.42 2.1,16 7.58,22.74 5.47,6.74 13.9,10.95 25.26,12.63l58.74 8.21c31.16,4.21 54.84,15.68 71.06,34.42 16.21,18.74 24.11,40 23.69,63.79 -0.42,23.79 -8.42,44.53 -24,62.21 -19.37,21.47 -44.32,34.74 -74.85,39.79 -30.53,5.05 -60.42,1.79 -89.69,-9.79 -29.26,-11.58 -51.48,-29.37 -66.64,-53.37z"/>
 </g>
</svg>
