<?xml version="1.0" standalone="no"?><!DOCTYPE svg PUBLIC "-//W3C//DTD SVG 1.1//EN" "http://www.w3.org/Graphics/SVG/1.1/DTD/svg11.dtd"><svg t="1745209886911" class="icon" viewBox="0 0 1024 1024" version="1.1" xmlns="http://www.w3.org/2000/svg" p-id="4836" xmlns:xlink="http://www.w3.org/1999/xlink" width="200" height="200"><path d="M102.760931 509.188218c0-2.556166 0.511233-5.112332 1.533699-7.668498-0.511233 2.044933-1.022466 4.601098-1.533699 7.668498zM116.052993 482.604094l-1.5337 1.533699 1.5337-1.533699z" p-id="4837" fill="#8a8a8a"></path><path d="M511.236218 1.533699C229.035519 1.533699 0.003067 230.566151 0.003067 512.76685s229.032451 511.23315 511.233151 511.23315 511.23315-229.032451 511.23315-511.23315S793.436917 1.533699 511.236218 1.533699z m0 940.668997c-237.212182 0-429.435846-192.223665-429.435847-429.435846s192.223665-429.435846 429.435847-429.435847 429.435846 192.223665 429.435846 429.435847-192.223665 429.435846-429.435846 429.435846z" p-id="4838" fill="#8a8a8a"></path><path d="M655.403966 548.55317l-115.538692 115.538692c-1.022466 1.022466-2.044933 1.533699-3.067399 2.556166-1.022466 0.511233-1.533699 1.533699-2.556166 2.044933h-0.511233c-0.511233 0-0.511233 0.511233-1.022466 0.511233-0.511233 0.511233-1.533699 1.022466-2.556166 1.533699l-0.511233 0.511233c-1.022466 0.511233-2.044933 1.022466-3.578632 1.5337-1.022466 0.511233-2.044933 1.022466-3.067399 1.022466h-0.511233c-1.022466 0.511233-2.556166 0.511233-3.578632 1.022466-1.533699 0.511233-2.556166 0.511233-4.089865 0.511234h-8.179731c-1.533699 0-2.556166-0.511233-4.089865-0.511234s-2.556166-0.511233-3.578632-1.022466h-0.511233c-1.022466-0.511233-2.044933-1.022466-3.067399-1.022466-1.022466-0.511233-2.556166-1.022466-3.578632-1.5337 0 0-0.511233 0-0.511233-0.511233-1.022466-0.511233-1.533699-1.022466-2.556166-1.533699-0.511233 0-0.511233-0.511233-1.022466-0.511233h-0.511233c-1.022466-0.511233-1.533699-1.533699-2.556166-2.044933-1.022466-1.022466-2.044933-1.533699-3.067399-2.556166l-115.538692-115.538692c-15.848228-15.848228-15.848228-41.921118 0-57.769346 8.17973-8.17973 18.404393-11.758362 29.14029-11.758362 10.224663 0 20.960559 4.089865 29.140289 11.758362l46.010984 46.010984V267.374938c0-22.494259 18.404393-40.898652 40.898652-40.898652 11.247129 0 21.471792 4.601098 29.140289 11.758362 7.157264 7.668497 11.758362 17.89316 11.758363 29.14029V536.794808l46.010983-46.010984c15.848228-15.848228 41.921118-15.848228 57.769346 0 15.848228 15.848228 15.848228 41.921118-0.511233 57.769346z m19.42686 250.504244h-327.189216c-22.494259 0-40.898652-18.404393-40.898652-40.898652s18.404393-40.898652 40.898652-40.898652h327.189216c22.494259 0 40.898652 18.404393 40.898652 40.898652s-18.404393 40.898652-40.898652 40.898652z" p-id="4839" fill="#8a8a8a"></path></svg>