<?xml version="1.0" standalone="no"?><!DOCTYPE svg PUBLIC "-//W3C//DTD SVG 1.1//EN" "http://www.w3.org/Graphics/SVG/1.1/DTD/svg11.dtd"><svg t="1741397098865" class="icon" viewBox="0 0 1024 1024" version="1.1" xmlns="http://www.w3.org/2000/svg" p-id="12208" xmlns:xlink="http://www.w3.org/1999/xlink" width="200" height="200"><path d="M777.216 171.008c-58.368 0-105.472 47.104-105.472 105.472 0 58.368 47.104 105.472 105.472 105.472S882.688 334.848 882.688 276.48c-1.024-58.368-48.128-105.472-105.472-105.472m0-92.16c108.544 0 196.608 88.064 196.608 196.608s-88.064 196.608-196.608 196.608-196.608-88.064-196.608-196.608S668.672 78.848 777.216 78.848z" fill="#FF6734" p-id="12209"></path><path d="M435.2 92.16c-79.872 0-144.384 64.512-144.384 144.384s64.512 144.384 144.384 144.384 144.384-64.512 144.384-144.384S515.072 92.16 435.2 92.16m0-92.16c130.048 0 236.544 105.472 236.544 236.544S566.272 473.088 435.2 473.088s-235.52-106.496-235.52-236.544S305.152 0 435.2 0zM540.672 604.16c-58.368 0-105.472 47.104-105.472 105.472v117.76c0 58.368 47.104 105.472 105.472 105.472h249.856c58.368 0 105.472-47.104 105.472-105.472V708.608c0-58.368-47.104-105.472-105.472-105.472H540.672m0-91.136h249.856c108.544 0 196.608 88.064 196.608 196.608v117.76c0 108.544-88.064 196.608-196.608 196.608H540.672c-108.544 0-196.608-88.064-196.608-196.608V708.608c0-108.544 88.064-196.608 196.608-196.608z" fill="#FF6734" p-id="12210"></path><path d="M336.896 768c0-9.216-5.12-18.432-13.312-22.528l-150.528-86.016c-12.288-7.168-28.672-3.072-35.84 10.24-2.048 4.096-3.072 8.192-3.072 13.312v172.032c0 14.336 11.264 26.624 26.624 26.624 4.096 0 9.216-1.024 13.312-3.072l150.528-86.016c7.168-6.144 12.288-15.36 12.288-24.576m92.16 0c0 41.984-22.528 81.92-59.392 102.4l-150.528 86.016c-56.32 32.768-129.024 12.288-160.768-44.032-10.24-17.408-15.36-37.888-15.36-58.368V681.984c0-65.536 53.248-117.76 117.76-117.76 20.48 0 40.96 5.12 58.368 15.36L369.664 665.6c35.84 20.48 59.392 60.416 59.392 102.4z" fill="#FF6734" p-id="12211"></path></svg>