<?xml version="1.0" encoding="UTF-8"?>
<!DOCTYPE svg PUBLIC "-//W3C//DTD SVG 1.0//EN" "http://www.w3.org/TR/2001/REC-SVG-20010904/DTD/svg10.dtd">
<!-- Creator: CorelDRAW -->
<svg xmlns="http://www.w3.org/2000/svg" xml:space="preserve" width="76.2mm" height="76.5509mm" version="1.0" style="shape-rendering:geometricPrecision; text-rendering:geometricPrecision; image-rendering:optimizeQuality; fill-rule:evenodd; clip-rule:evenodd"
viewBox="0 0 5142.42 5166.1"
 xmlns:xlink="http://www.w3.org/1999/xlink"
 xmlns:xodm="http://www.corel.com/coreldraw/odm/2003">
 <defs>
  <style type="text/css">
   <![CDATA[
    .fil3 {fill:#525254}
    .fil4 {fill:#666666}
    .fil6 {fill:#72F47A}
    .fil7 {fill:#A7A7AB}
    .fil2 {fill:#B3B3B3}
    .fil5 {fill:url(#id0)}
    .fil0 {fill:url(#id1)}
    .fil1 {fill:url(#id2)}
   ]]>
  </style>
  <linearGradient id="id0" gradientUnits="userSpaceOnUse" x1="3773.32" y1="3924.96" x2="1369.1" y2="1241.13">
   <stop offset="0" style="stop-opacity:1; stop-color:#8C8C90"/>
   <stop offset="1" style="stop-opacity:1; stop-color:#C4C4C7"/>
  </linearGradient>
  <linearGradient id="id1" gradientUnits="userSpaceOnUse" x1="744.74" y1="764.95" x2="4397.68" y2="4401.15">
   <stop offset="0" style="stop-opacity:1; stop-color:#272728"/>
   <stop offset="1" style="stop-opacity:1; stop-color:#202020"/>
  </linearGradient>
  <linearGradient id="id2" gradientUnits="objectBoundingBox" xlink:href="#id0" x1="115.063%" y1="55.648%" x2="0%" y2="44.352%">
  </linearGradient>
 </defs>
 <g id="圖層_x0020_1">
  <metadata id="CorelCorpID_0Corel-Layer"/>
  <path class="fil0" d="M1206.36 0l2729.69 0c663.51,0 1206.36,542.86 1206.36,1206.36l0 2753.39c0,663.5 -542.86,1206.36 -1206.36,1206.36l-2729.69 0c-663.51,0 -1206.36,-542.86 -1206.36,-1206.36l0 -2753.39c0,-663.5 542.86,-1206.36 1206.36,-1206.36z"/>
  <g>
   <path class="fil1" d="M1343.6 1493.11l266.72 0c83.4,0 151.63,68.23 151.63,151.62l0 1631.28c0,83.39 -68.23,151.62 -151.63,151.62l-266.72 0c-83.4,0 -151.63,-68.23 -151.63,-151.62l0 -1631.28c0,-83.39 68.23,-151.62 151.63,-151.62z"/>
   <path id="_1" class="fil2" d="M1343.6 1493.11l266.72 0c83.4,0 151.63,68.23 151.63,151.62l0 1631.28c0,83.39 -68.23,151.62 -151.63,151.62l-266.72 0c-83.4,0 -151.63,-68.23 -151.63,-151.62l0 -1631.28c0,-83.39 68.23,-151.62 151.63,-151.62zm266.72 33.74l-266.72 0c-32.47,0 -61.93,13.23 -83.23,34.53l0 0.13c-21.37,21.37 -34.65,50.84 -34.65,83.22l0 1631.28c0,32.38 13.28,61.85 34.65,83.22l0 0.13c21.3,21.3 50.76,34.53 83.23,34.53l266.72 0c32.47,0 61.93,-13.23 83.23,-34.53l0 -0.13c21.37,-21.37 34.65,-50.84 34.65,-83.22l0 -1631.28c0,-32.38 -13.28,-61.85 -34.65,-83.22l0 -0.13c-21.3,-21.3 -50.76,-34.53 -83.23,-34.53z"/>
  </g>
  <g>
   <path class="fil1" d="M2073.03 1493.11c88.91,0 177.81,0 266.72,0 83.4,0 151.63,68.23 151.63,151.62 0,543.76 0,1087.52 0,1631.28 0,83.39 -68.23,151.62 -151.63,151.62 -88.91,0 -177.81,0 -266.72,0 -83.4,0 -151.63,-68.23 -151.63,-151.62 0,-543.76 0,-1087.52 0,-1631.28 0,-83.39 68.23,-151.62 151.63,-151.62z"/>
   <path id="_1_56" class="fil2" d="M2073.03 1493.11c88.91,0 177.81,0 266.72,0 83.4,0 151.63,68.23 151.63,151.62 0,543.76 0,1087.52 0,1631.28 0,83.39 -68.23,151.62 -151.63,151.62 -88.91,0 -177.81,0 -266.72,0 -83.4,0 -151.63,-68.23 -151.63,-151.62 0,-543.76 0,-1087.52 0,-1631.28 0,-83.39 68.23,-151.62 151.63,-151.62zm266.72 33.74l-266.72 0c-32.47,0 -61.93,13.23 -83.23,34.53l0 0.13c-21.37,21.37 -34.65,50.84 -34.65,83.22l0 1631.28c0,32.38 13.28,61.85 34.65,83.22l0 0.13c21.3,21.3 50.76,34.53 83.23,34.53l266.72 0c32.47,0 61.93,-13.23 83.23,-34.53l0 -0.13c21.37,-21.37 34.65,-50.84 34.65,-83.22l0 -1631.28c0,-32.38 -13.28,-61.85 -34.65,-83.22l0 -0.13c-21.3,-21.3 -50.76,-34.53 -83.23,-34.53z"/>
  </g>
  <g>
   <path class="fil1" d="M2802.46 1493.11c88.91,0 177.81,0 266.72,0 83.4,0 151.63,68.23 151.63,151.62 0,543.76 0,1087.52 0,1631.28 0,83.39 -68.23,151.62 -151.63,151.62 -88.91,0 -177.81,0 -266.72,0 -83.4,0 -151.63,-68.23 -151.63,-151.62 0,-543.76 0,-1087.52 0,-1631.28 0,-83.39 68.23,-151.62 151.63,-151.62z"/>
   <path id="_1_57" class="fil2" d="M2802.46 1493.11c88.91,0 177.81,0 266.72,0 83.4,0 151.63,68.23 151.63,151.62 0,543.76 0,1087.52 0,1631.28 0,83.39 -68.23,151.62 -151.63,151.62 -88.91,0 -177.81,0 -266.72,0 -83.4,0 -151.63,-68.23 -151.63,-151.62 0,-543.76 0,-1087.52 0,-1631.28 0,-83.39 68.23,-151.62 151.63,-151.62zm266.72 33.74l-266.72 0c-32.47,0 -61.93,13.23 -83.23,34.53l0 0.13c-21.37,21.37 -34.65,50.84 -34.65,83.22l0 1631.28c0,32.38 13.28,61.85 34.65,83.22l0 0.13c21.3,21.3 50.76,34.53 83.23,34.53l266.72 0c32.47,0 61.93,-13.23 83.23,-34.53l0 -0.13c21.37,-21.37 34.65,-50.84 34.65,-83.22l0 -1631.28c0,-32.38 -13.28,-61.85 -34.65,-83.22l0 -0.13c-21.3,-21.3 -50.76,-34.53 -83.23,-34.53z"/>
  </g>
  <g>
   <path class="fil1" d="M3531.9 1493.11l266.72 0c83.4,0 151.63,68.23 151.63,151.62l0 1631.28c0,83.39 -68.23,151.62 -151.63,151.62l-266.72 0c-83.4,0 -151.63,-68.23 -151.63,-151.62l0 -1631.28c0,-83.39 68.23,-151.62 151.63,-151.62z"/>
   <path id="_1_58" class="fil2" d="M3531.9 1493.11l266.72 0c83.4,0 151.63,68.23 151.63,151.62l0 1631.28c0,83.39 -68.23,151.62 -151.63,151.62l-266.72 0c-83.4,0 -151.63,-68.23 -151.63,-151.62l0 -1631.28c0,-83.39 68.23,-151.62 151.63,-151.62zm266.72 33.74l-266.72 0c-32.47,0 -61.93,13.23 -83.23,34.53l0 0.13c-21.37,21.37 -34.65,50.84 -34.65,83.22l0 1631.28c0,32.38 13.28,61.85 34.65,83.22l0 0.13c21.3,21.3 50.76,34.53 83.23,34.53l266.72 0c32.47,0 61.93,-13.23 83.23,-34.53l0 -0.13c21.37,-21.37 34.65,-50.84 34.65,-83.22l0 -1631.28c0,-32.38 -13.28,-61.85 -34.65,-83.22l0 -0.13c-21.3,-21.3 -50.76,-34.53 -83.23,-34.53z"/>
  </g>
  <g>
   <path class="fil3" d="M1407.69 1719.91l138.52 0c10.99,0 19.98,8.99 19.98,19.98l0 415.39c0,10.99 -8.99,19.98 -19.98,19.98l-138.52 0c-10.99,0 -19.98,-8.99 -19.98,-19.98l0 -415.39c0,-10.99 8.99,-19.98 19.98,-19.98z"/>
   <path id="_1_59" class="fil4" d="M1407.69 1719.91l138.52 0c10.99,0 19.98,8.99 19.98,19.98l0 415.39c0,10.99 -8.99,19.98 -19.98,19.98l-138.52 0c-10.99,0 -19.98,-8.99 -19.98,-19.98l0 -415.39c0,-10.99 8.99,-19.98 19.98,-19.98zm138.52 16.87l-138.52 0c-0.88,0 -1.65,0.34 -2.18,0.86l-0.07 0.07c-0.53,0.53 -0.86,1.3 -0.86,2.18l0 415.39c0,0.88 0.34,1.65 0.86,2.18l0.07 0.07c0.53,0.53 1.3,0.86 2.18,0.86l138.52 0c0.88,0 1.65,-0.34 2.18,-0.86l0.07 -0.07c0.53,-0.53 0.86,-1.3 0.86,-2.18l0 -415.39c0,-0.88 -0.34,-1.65 -0.86,-2.18l-0.07 -0.07c-0.53,-0.53 -1.3,-0.86 -2.18,-0.86z"/>
  </g>
  <g>
   <path class="fil3" d="M2137.13 1719.91c46.17,0 92.35,0 138.52,0 10.99,0 19.98,8.99 19.98,19.98 0,138.46 0,276.92 0,415.39 0,10.99 -8.99,19.98 -19.98,19.98 -46.17,0 -92.35,0 -138.52,0 -10.99,0 -19.98,-8.99 -19.98,-19.98 0,-138.47 0,-276.93 0,-415.39 0,-10.99 8.99,-19.98 19.98,-19.98z"/>
   <path id="_1_60" class="fil4" d="M2137.13 1719.91c46.17,0 92.35,0 138.52,0 10.99,0 19.98,8.99 19.98,19.98 0,138.46 0,276.92 0,415.39 0,10.99 -8.99,19.98 -19.98,19.98 -46.17,0 -92.35,0 -138.52,0 -10.99,0 -19.98,-8.99 -19.98,-19.98 0,-138.47 0,-276.93 0,-415.39 0,-10.99 8.99,-19.98 19.98,-19.98zm138.52 16.87l-138.52 0c-0.88,0 -1.65,0.34 -2.18,0.86l-0.07 0.07c-0.53,0.53 -0.86,1.3 -0.86,2.18l0 415.39c0,0.88 0.34,1.65 0.86,2.18l0.07 0.07c0.53,0.53 1.3,0.86 2.18,0.86l138.52 0c0.88,0 1.65,-0.34 2.18,-0.86l0.07 -0.07c0.53,-0.53 0.86,-1.3 0.86,-2.18l0 -415.39c0,-0.88 -0.34,-1.65 -0.86,-2.18l-0.07 -0.07c-0.53,-0.53 -1.3,-0.86 -2.18,-0.86z"/>
  </g>
  <g>
   <path class="fil3" d="M2866.56 1719.91c46.17,0 92.35,0 138.52,0 10.99,0 19.98,8.99 19.98,19.98 0,138.46 0,276.92 0,415.39 0,10.99 -8.99,19.98 -19.98,19.98 -46.17,0 -92.35,0 -138.52,0 -10.99,0 -19.98,-8.99 -19.98,-19.98 0,-138.47 0,-276.93 0,-415.39 0,-10.99 8.99,-19.98 19.98,-19.98z"/>
   <path id="_1_61" class="fil4" d="M2866.56 1719.91c46.17,0 92.35,0 138.52,0 10.99,0 19.98,8.99 19.98,19.98 0,138.46 0,276.92 0,415.39 0,10.99 -8.99,19.98 -19.98,19.98 -46.17,0 -92.35,0 -138.52,0 -10.99,0 -19.98,-8.99 -19.98,-19.98 0,-138.47 0,-276.93 0,-415.39 0,-10.99 8.99,-19.98 19.98,-19.98zm138.52 16.87l-138.52 0c-0.88,0 -1.65,0.34 -2.18,0.86l-0.07 0.07c-0.53,0.53 -0.86,1.3 -0.86,2.18l0 415.39c0,0.88 0.34,1.65 0.86,2.18l0.07 0.07c0.53,0.53 1.3,0.86 2.18,0.86l138.52 0c0.88,0 1.65,-0.34 2.18,-0.86l0.07 -0.07c0.53,-0.53 0.86,-1.3 0.86,-2.18l0 -415.39c0,-0.88 -0.34,-1.65 -0.86,-2.18l-0.07 -0.07c-0.53,-0.53 -1.3,-0.86 -2.18,-0.86z"/>
  </g>
  <g>
   <path class="fil3" d="M3596 1719.91l138.52 0c10.99,0 19.98,8.99 19.98,19.98l0 415.39c0,10.99 -8.99,19.98 -19.98,19.98l-138.52 0c-10.99,0 -19.98,-8.99 -19.98,-19.98l0 -415.39c0,-10.99 8.99,-19.98 19.98,-19.98z"/>
   <path id="_1_62" class="fil4" d="M3596 1719.91l138.52 0c10.99,0 19.98,8.99 19.98,19.98l0 415.39c0,10.99 -8.99,19.98 -19.98,19.98l-138.52 0c-10.99,0 -19.98,-8.99 -19.98,-19.98l0 -415.39c0,-10.99 8.99,-19.98 19.98,-19.98zm138.52 16.87l-138.52 0c-0.88,0 -1.65,0.34 -2.18,0.86l-0.07 0.07c-0.53,0.53 -0.86,1.3 -0.86,2.18l0 415.39c0,0.88 0.34,1.65 0.86,2.18l0.07 0.07c0.53,0.53 1.3,0.86 2.18,0.86l138.52 0c0.88,0 1.65,-0.34 2.18,-0.86l0.07 -0.07c0.53,-0.53 0.86,-1.3 0.86,-2.18l0 -415.39c0,-0.88 -0.34,-1.65 -0.86,-2.18l-0.07 -0.07c-0.53,-0.53 -1.3,-0.86 -2.18,-0.86z"/>
  </g>
  <path class="fil5" d="M3983.48 3769.52l-2824.54 0c-125.19,0 -227.6,-102.42 -227.6,-227.6l0 -2168.2c0,-125.18 102.4,-227.6 227.6,-227.6l2824.54 0c125.19,0 227.6,102.42 227.6,227.6l0 2168.2c0,125.18 -102.4,227.6 -227.6,227.6zm158.14 -2896.81l-3140.82 0c-186.37,0 -338.85,152.47 -338.85,338.85l0 2742.99c0,186.38 152.48,338.85 338.85,338.85l3140.82 0c186.37,0 338.85,-152.47 338.85,-338.85l0 -2742.99c0,-186.38 -152.48,-338.85 -338.85,-338.85z"/>
  <path class="fil6" d="M2170.05 3949.12c50.35,0 91.17,40.82 91.17,91.17 0,50.35 -40.82,91.17 -91.17,91.17 -50.35,0 -91.17,-40.82 -91.17,-91.17 0,-50.35 40.82,-91.17 91.17,-91.17z"/>
  <path class="fil6" d="M2571.21 3949.12c50.35,0 91.17,40.82 91.17,91.17 0,50.35 -40.82,91.17 -91.17,91.17 -50.35,0 -91.17,-40.82 -91.17,-91.17 0,-50.35 40.82,-91.17 91.17,-91.17z"/>
  <path class="fil6" d="M2972.37 3949.12c50.35,0 91.17,40.82 91.17,91.17 0,50.35 -40.82,91.17 -91.17,91.17 -50.35,0 -91.17,-40.82 -91.17,-91.17 0,-50.35 40.82,-91.17 91.17,-91.17z"/>
  <path class="fil7" d="M1206.36 0l2729.69 0c663.51,0 1206.36,542.86 1206.36,1206.36l0 2753.39c0,663.5 -542.86,1206.36 -1206.36,1206.36l-2729.69 0c-663.51,0 -1206.36,-542.86 -1206.36,-1206.36l0 -2753.39c0,-663.5 542.86,-1206.36 1206.36,-1206.36zm2729.69 134.97l-2729.69 0c-294.49,0 -562.31,120.58 -756.56,314.83 -194.25,194.24 -314.83,462.07 -314.83,756.56l0 2753.39c0,294.49 120.58,562.31 314.83,756.56 194.25,194.25 462.08,314.83 756.56,314.83l2729.69 0c294.49,0 562.31,-120.58 756.56,-314.83 194.25,-194.24 314.83,-462.07 314.83,-756.56l0 -2753.39c0,-294.49 -120.58,-562.31 -314.83,-756.56 -194.25,-194.25 -462.08,-314.83 -756.56,-314.83z"/>
 </g>
</svg>
