<?xml version="1.0" encoding="UTF-8"?>
<!DOCTYPE svg PUBLIC "-//W3C//DTD SVG 1.0//EN" "http://www.w3.org/TR/2001/REC-SVG-20010904/DTD/svg10.dtd">
<!-- Creator: CorelDRAW -->
<svg xmlns="http://www.w3.org/2000/svg" xml:space="preserve" width="4.4922mm" height="4.4869mm" version="1.0" style="shape-rendering:geometricPrecision; text-rendering:geometricPrecision; image-rendering:optimizeQuality; fill-rule:evenodd; clip-rule:evenodd"
viewBox="0 0 62.33 62.25"
 xmlns:xlink="http://www.w3.org/1999/xlink"
 xmlns:xodm="http://www.corel.com/coreldraw/odm/2003">
 <defs>
  <style type="text/css">
   <![CDATA[
    .fil0 {fill:#666666;fill-rule:nonzero}
   ]]>
  </style>
 </defs>
 <g id="圖層_x0020_1">
  <metadata id="CorelCorpID_0Corel-Layer"/>
  <path class="fil0" d="M48.21 14.04c-1.38,-1.38 -1.38,-3.61 0,-4.99 1.38,-1.38 3.61,-1.38 4.99,0l0.2 0.21c5.95,6.06 8.93,13.94 8.93,21.82 0,7.97 -3.05,15.94 -9.13,22.02 -6.09,6.1 -14.06,9.14 -22.04,9.14 -7.97,0 -15.95,-3.05 -22.03,-9.13 -6.08,-6.08 -9.13,-14.06 -9.13,-22.03 0,-7.96 3.05,-15.94 9.13,-22.02 1.38,-1.39 3.61,-1.39 4.99,-0.02 1.38,1.38 1.38,3.61 0,4.99 -4.71,4.7 -7.06,10.87 -7.06,17.05 0,6.17 2.36,12.34 7.06,17.05 4.71,4.71 10.88,7.06 17.05,7.06 6.17,0 12.34,-2.36 17.05,-7.06 4.71,-4.7 7.06,-10.87 7.06,-17.05 0,-6.1 -2.3,-12.2 -6.88,-16.88l-0.18 -0.17zm-20.58 -10.51c0,-1.95 1.58,-3.53 3.53,-3.53 1.95,0 3.53,1.58 3.53,3.53l0 27.56c0,1.95 -1.58,3.53 -3.53,3.53 -1.95,0 -3.53,-1.58 -3.53,-3.53l0 -27.56z"/>
 </g>
</svg>
